<svg width="207" height="39" viewBox="0 0 207 39" fill="none" xmlns="http://www.w3.org/2000/svg">
<line x1="52.1074" y1="37" x2="154.029" y2="37" stroke="#F9892B" stroke-width="4"/>
<path d="M7.29293 18.8228C5.83434 18.8228 4.43186 18.6025 3.08547 18.1619C1.75778 17.7213 0.729293 17.1397 0 16.4171L0.813442 14.9102C1.52404 15.5799 2.46838 16.1263 3.64646 16.5493C4.82455 16.9546 6.04004 17.1573 7.29293 17.1573C9.05071 17.1573 10.3691 16.8577 11.2479 16.2585C12.1268 15.6416 12.5663 14.8485 12.5663 13.8792C12.5663 13.139 12.3232 12.5485 11.837 12.1079C11.3695 11.6673 10.7898 11.3325 10.0979 11.1033C9.40601 10.8566 8.44297 10.5922 7.20878 10.3103C5.73149 9.95776 4.55341 9.6229 3.67451 9.30566C2.79562 8.9708 2.03828 8.4685 1.40249 7.79878C0.785392 7.12905 0.476845 6.2214 0.476845 5.07582C0.476845 4.14172 0.738643 3.29575 1.26224 2.53791C1.78583 1.76244 2.58993 1.14558 3.67451 0.687351C4.7591 0.229117 6.10549 0 7.71368 0C8.83567 0 9.9296 0.149807 10.9955 0.449422C12.0801 0.731411 13.0151 1.12796 13.8005 1.63906L13.0992 3.19882C12.2764 2.68771 11.3975 2.30879 10.4625 2.06205C9.52756 1.79769 8.61127 1.6655 7.71368 1.6655C5.99329 1.6655 4.69365 1.98274 3.81476 2.61722C2.95457 3.23407 2.52448 4.03598 2.52448 5.02294C2.52448 5.76316 2.75822 6.36239 3.22572 6.82063C3.71191 7.26124 4.31031 7.60491 5.0209 7.85165C5.75019 8.08077 6.72259 8.33632 7.93807 8.61831C9.37796 8.95317 10.5373 9.28804 11.4162 9.6229C12.3138 9.94014 13.0712 10.4336 13.6883 11.1033C14.3054 11.7554 14.6139 12.6455 14.6139 13.7734C14.6139 14.7075 14.3428 15.5623 13.8005 16.3378C13.2769 17.0956 12.4634 17.7037 11.3601 18.1619C10.2569 18.6025 8.90111 18.8228 7.29293 18.8228Z" fill="black"/>
<path d="M40.1457 0C42.3897 0 44.1381 0.60804 45.391 1.82412C46.6439 3.0402 47.2704 4.80264 47.2704 7.11143V18.6642H45.2227V7.1643C45.2227 5.36662 44.7365 4.01835 43.7642 3.11951C42.8105 2.20304 41.5015 1.74481 39.8372 1.74481C38.0794 1.74481 36.705 2.22948 35.7139 3.19882C34.7228 4.15054 34.2272 5.61336 34.2272 7.58729V18.6642H32.1796V7.1643C32.1796 5.36662 31.7121 4.01835 30.7771 3.11951C29.8421 2.20304 28.5425 1.74481 26.8782 1.74481C25.1017 1.74481 23.7086 2.22948 22.6988 3.19882C21.7077 4.15054 21.2122 5.61336 21.2122 7.58729V18.6642H19.1365V0.158619H21.128V3.25169C21.6703 2.19423 22.4744 1.39232 23.5403 0.845969C24.6062 0.28199 25.8684 0 27.327 0C28.8604 0 30.1694 0.308427 31.254 0.925279C32.3573 1.52451 33.152 2.37048 33.6382 3.46319C34.1992 2.33523 35.0407 1.48045 36.1627 0.898842C37.3034 0.299614 38.6311 0 40.1457 0Z" fill="black"/>
<path d="M62.0971 18.8228C60.1523 18.8228 58.3851 18.4175 56.7957 17.6067C55.2249 16.7784 53.9907 15.6504 53.0931 14.2229C52.2142 12.7953 51.7748 11.1915 51.7748 9.41141C51.7748 7.63135 52.2142 6.02753 53.0931 4.59996C53.9907 3.17238 55.2249 2.05324 56.7957 1.24252C58.3851 0.414172 60.1523 0 62.0971 0C64.0418 0 65.7903 0.40536 67.3424 1.21608C68.9131 2.0268 70.1473 3.15476 71.0449 4.59996C71.9425 6.02753 72.3913 7.63135 72.3913 9.41141C72.3913 11.1915 71.9425 12.8041 71.0449 14.2493C70.1473 15.6769 68.9131 16.796 67.3424 17.6067C65.7903 18.4175 64.0418 18.8228 62.0971 18.8228ZM62.0971 17.078C63.6491 17.078 65.0516 16.752 66.3045 16.0999C67.5574 15.4301 68.5392 14.5137 69.2497 13.3505C69.9603 12.1696 70.3156 10.8566 70.3156 9.41141C70.3156 7.96621 69.9603 6.66201 69.2497 5.4988C68.5392 4.31797 67.5574 3.4015 66.3045 2.7494C65.0516 2.07967 63.6491 1.74481 62.0971 1.74481C60.545 1.74481 59.1331 2.07967 57.8615 2.7494C56.6087 3.4015 55.6176 4.31797 54.8883 5.4988C54.1777 6.66201 53.8224 7.96621 53.8224 9.41141C53.8224 10.8566 54.1777 12.1696 54.8883 13.3505C55.6176 14.5137 56.6087 15.4301 57.8615 16.0999C59.1331 16.752 60.545 17.078 62.0971 17.078Z" fill="black"/>
<path d="M83.1306 9.96657L79.1195 13.7999V18.6642H77.0438V0.158619H79.1195V11.3413L90.648 0.158619H93.0322L84.5331 8.539L93.6212 18.6642H91.1529L83.1306 9.96657Z" fill="black"/>
<path d="M110.736 16.5493C109.932 17.2719 108.857 17.8359 107.511 18.2412C106.183 18.6289 104.706 18.8228 103.079 18.8228C101.358 18.8228 99.8905 18.6025 98.675 18.1619C97.4782 17.7213 96.5713 17.1133 95.9542 16.3378C95.3558 15.5623 95.0566 14.6723 95.0566 13.6677C95.0566 12.5574 95.4025 11.6145 96.0944 10.839C96.805 10.0635 97.7307 9.52597 98.8714 9.22635C97.9364 8.89149 97.2071 8.36276 96.6835 7.64016C96.1599 6.89994 95.8981 6.03634 95.8981 5.04938C95.8981 4.11529 96.1786 3.26932 96.7396 2.51147C97.3193 1.736 98.1795 1.12796 99.3202 0.687351C100.48 0.229117 101.873 0 103.5 0C104.696 0 105.856 0.132183 106.978 0.396548C108.118 0.643289 109.091 1.00459 109.895 1.48045L109.25 3.0402C107.529 2.12374 105.641 1.6655 103.584 1.6655C101.77 1.6655 100.377 1.99155 99.4043 2.64365C98.4506 3.29576 97.9738 4.14172 97.9738 5.18156C97.9738 6.2214 98.3571 7.02331 99.1238 7.58729C99.9092 8.15127 101.012 8.43326 102.434 8.43326H107.314V10.1252H102.35C100.741 10.1252 99.4697 10.416 98.5348 10.9976C97.5998 11.5616 97.1323 12.4075 97.1323 13.5355C97.1323 14.6458 97.6372 15.5271 98.647 16.1792C99.6754 16.8313 101.181 17.1573 103.163 17.1573C104.547 17.1573 105.837 16.9723 107.034 16.6021C108.231 16.232 109.203 15.7209 109.951 15.0688L110.736 16.5493Z" fill="black"/>
<path d="M122.605 18.8228C120.661 18.8228 118.903 18.4175 117.332 17.6067C115.78 16.796 114.555 15.6769 113.658 14.2493C112.779 12.8041 112.339 11.1915 112.339 9.41141C112.339 7.63135 112.779 6.02753 113.658 4.59996C114.555 3.15476 115.789 2.0268 117.36 1.21608C118.931 0.40536 120.689 0 122.633 0C124.092 0 125.438 0.229117 126.673 0.687351C127.907 1.14558 128.954 1.81531 129.814 2.69653L128.496 3.93904C126.962 2.47622 125.027 1.74481 122.69 1.74481C121.137 1.74481 119.726 2.07967 118.454 2.7494C117.182 3.41913 116.182 4.33559 115.453 5.4988C114.742 6.66201 114.387 7.96621 114.387 9.41141C114.387 10.8566 114.742 12.1608 115.453 13.324C116.182 14.4872 117.182 15.4037 118.454 16.0734C119.726 16.7431 121.137 17.078 122.69 17.078C125.046 17.078 126.981 16.3378 128.496 14.8573L129.814 16.0999C128.954 16.9811 127.897 17.6596 126.645 18.1355C125.41 18.5937 124.064 18.8228 122.605 18.8228Z" fill="black"/>
<path d="M147.647 18.6642L143.159 12.716C142.654 12.7688 142.13 12.7953 141.588 12.7953H136.315V18.6642H134.239V0.158619H141.588C144.094 0.158619 146.057 0.722598 147.478 1.85056C148.9 2.97852 149.61 4.52946 149.61 6.50339C149.61 7.94859 149.218 9.17348 148.432 10.1781C147.665 11.165 146.562 11.8788 145.122 12.3194L149.919 18.6642H147.647ZM141.532 11.1298C143.477 11.1298 144.963 10.7244 145.992 9.9137C147.02 9.10298 147.535 7.96621 147.535 6.50339C147.535 5.00532 147.02 3.85973 145.992 3.06664C144.963 2.25592 143.477 1.85056 141.532 1.85056H136.315V11.1298H141.532Z" fill="black"/>
<path d="M162.532 0C165.075 0 167.076 0.704974 168.534 2.11492C170.011 3.50725 170.75 5.52524 170.75 8.16889V18.6642H168.702V13.2183H156.361V18.6642H154.341V8.16889C154.341 5.52524 155.07 3.50725 156.529 2.11492C158.006 0.704974 160.007 0 162.532 0ZM168.702 11.5263V7.98383C168.702 5.92178 168.16 4.37084 167.076 3.331C165.991 2.27354 164.476 1.74481 162.532 1.74481C160.587 1.74481 159.072 2.27354 157.987 3.331C156.903 4.37084 156.361 5.92178 156.361 7.98383V11.5263H168.702Z" fill="black"/>
<path d="M184.601 1.74481C182.674 1.74481 181.235 2.15898 180.281 2.98733C179.346 3.79805 178.878 4.97888 178.878 6.52983V9.12061H188.247V10.8125H178.878V18.6642H176.803V6.50339C176.803 4.47659 177.476 2.89039 178.822 1.74481C180.169 0.581604 182.067 0 184.516 0C186.891 0 188.799 0.48467 190.239 1.45401L189.481 3.06664C188.21 2.18542 186.583 1.74481 184.601 1.74481Z" fill="black"/>
<path d="M206.243 3.56893C204.317 2.51147 202.185 1.90343 199.847 1.74481V18.6642H197.772V1.74481C195.472 1.88581 193.33 2.49385 191.348 3.56893L190.591 2.03561C193.022 0.678538 195.752 0 198.781 0C201.867 0 204.606 0.678538 207 2.03561L206.243 3.56893Z" fill="black"/>
</svg>
