<svg width="228" height="138" viewBox="0 0 228 138" fill="none" xmlns="http://www.w3.org/2000/svg">
<path d="M34.6714 136.992H84.1387L84.1387 4.2114H34.6714L34.6714 136.992Z" fill="#F9892B" stroke="#263238" stroke-linecap="round" stroke-linejoin="round"/>
<path d="M84.1384 4.21928L69.5499 60.2301H35.0703V39.5407L84.1384 4.21928Z" fill="#263238" stroke="#263238" stroke-linecap="round" stroke-linejoin="round"/>
<path d="M149.229 4.21928L172.226 53.6865H226.033L198.696 4.21928H149.229Z" fill="#263238" stroke="#263238" stroke-linecap="round" stroke-linejoin="round"/>
<path d="M198.696 4.21928H84.1406V137H198.696V4.21928Z" fill="#F9892B" stroke="#263238" stroke-linecap="round" stroke-linejoin="round"/>
<path d="M84.1404 4.21928L61.1424 53.6865H7.33594L34.6731 4.21928H84.1404Z" fill="#F9892B" stroke="#263238" stroke-linecap="round" stroke-linejoin="round"/>
<path d="M21.2817 7.96841L10.5117 27.6251" stroke="#263238" stroke-linecap="round" stroke-linejoin="round"/>
<path d="M14.3128 12.4124L1 38.3957" stroke="#263238" stroke-linecap="round" stroke-linejoin="round"/>
<path d="M201.949 1L215.896 18.1139" stroke="#263238" stroke-linecap="round" stroke-linejoin="round"/>
<path d="M212.096 5.4348L227.309 25.7251" stroke="#263238" stroke-linecap="round" stroke-linejoin="round"/>
<path d="M164.936 61.0639C164.236 63.6139 163.146 66.4239 160.866 67.9839C158.516 69.5839 155.746 69.3139 153.896 67.1839C153.536 66.7639 150.136 61.2639 149.546 62.4539C148.336 64.9339 149.936 67.8039 152.216 69.7439C152.806 70.5339 153.306 71.0939 153.496 71.0539C153.566 71.0339 153.446 70.8039 153.376 70.6139C153.516 70.7039 153.656 70.8039 153.796 70.8839C153.776 71.1139 154.726 71.7039 155.456 72.1139C157.656 72.3039 158.916 72.8039 160.976 71.6239C162.126 70.9639 160.466 71.4639 160.536 71.5139C160.876 71.3439 161.206 71.2039 161.526 71.0239C162.826 71.5439 163.136 70.4739 163.356 69.7339C163.456 69.6439 163.536 69.5539 163.626 69.4639C163.696 69.5439 163.826 69.4139 163.846 69.3839C163.786 69.3639 163.756 69.3639 163.726 69.3639C164.076 69.0139 164.416 68.6439 164.726 68.2439C164.666 68.3339 164.776 68.2939 164.856 68.1139C164.786 68.1739 164.746 68.2139 164.726 68.2439C165.166 67.6839 165.556 67.0939 165.916 66.4639C166.046 66.4839 166.136 66.4839 166.106 66.4139C166.116 66.4439 166.056 66.4039 165.976 66.3439C166.146 66.0439 166.306 65.7439 166.456 65.4339C166.496 65.5339 166.526 65.6639 166.546 65.7239C166.586 65.7139 166.566 65.4639 166.506 65.3339C167.056 64.1939 167.496 63.0039 167.806 61.8339C168.306 60.0039 165.426 59.2039 164.926 61.0439L164.936 61.0639ZM155.116 71.5339C155.116 71.5339 155.166 71.5539 155.186 71.5639C155.176 71.5839 155.156 71.6139 155.126 71.6439C155.066 71.6139 155.086 71.5739 155.126 71.5339H155.116ZM159.526 71.7939C159.526 71.7939 159.556 71.8839 159.576 71.9439C159.576 71.9439 159.546 71.8639 159.526 71.7939ZM160.396 71.6639L160.246 71.7239C160.246 71.6639 160.246 71.6239 160.246 71.5939C160.276 71.5939 160.296 71.5739 160.326 71.5639C160.346 71.5839 160.376 71.6139 160.406 71.6539L160.396 71.6639ZM162.726 70.4839C162.236 70.7139 162.276 71.0339 162.726 70.4839V70.4839ZM162.976 70.1439C162.946 70.0839 162.976 70.0639 162.996 70.0439C163.006 70.0639 163.006 70.0939 162.976 70.1439Z" fill="black"/>
<path d="M128.105 71.8039C128.635 71.7139 129.165 71.0239 129.535 70.4039C129.895 70.1039 130.235 69.7939 130.555 69.4639C130.685 69.4939 130.785 69.5039 130.755 69.4339C130.765 69.4639 130.715 69.434 130.645 69.364C130.835 69.164 131.015 68.9639 131.185 68.7639C131.215 68.7639 131.215 68.7439 131.225 68.7239C132.635 67.0139 133.315 65.1039 132.185 63.5639C130.615 61.4239 127.285 70.0139 123.975 70.2139C121.525 70.3639 119.585 68.9839 118.565 66.8439C118.395 66.4839 116.365 60.0439 115.405 62.4239C114.475 64.7239 115.235 67.154 116.775 69.114C117.315 70.4039 117.845 71.5139 118.045 71.4739C118.215 71.4539 117.485 70.1339 118.575 71.2739C117.825 71.2539 119.025 72.1739 119.855 72.7539C122.045 73.1639 122.695 74.2139 125.065 73.6339C126.265 73.4139 124.825 73.3139 124.695 73.3839C124.755 73.2239 124.815 73.0939 124.875 73.0039C125.025 72.9639 125.175 72.9239 125.335 72.8739C125.345 72.8839 125.365 72.8839 125.375 72.9039C125.555 72.8039 125.735 72.7339 125.925 72.6539C125.935 72.6739 125.955 72.6539 125.975 72.6339C125.995 72.6139 126.005 72.6439 126.075 72.7939C126.055 73.2539 125.945 72.8839 125.935 72.6839C125.775 72.8539 125.665 73.004 125.625 73.114C127.325 74.624 127.745 71.8739 128.145 71.8039H128.105ZM118.115 70.5539C118.115 70.5539 118.155 70.5839 118.175 70.6039C118.145 70.6039 118.115 70.6239 118.075 70.6239C118.075 70.5839 118.105 70.5739 118.115 70.5539ZM119.525 72.2439C119.375 72.1539 119.845 71.9639 119.525 72.2439V72.2439ZM119.825 72.2939C119.835 72.2039 119.885 72.1539 119.975 72.1239C119.965 72.2739 119.915 72.3239 119.825 72.2939ZM122.295 72.9639C122.295 72.9639 122.245 72.924 122.245 72.864C122.275 72.864 122.295 72.8639 122.325 72.8839C122.325 72.9339 122.325 72.9839 122.295 72.9639ZM124.315 73.5239C124.355 73.3039 124.395 73.2939 124.475 73.5139H124.315V73.5239ZM126.055 72.6639C126.055 72.6639 126.055 72.634 126.055 72.614C126.105 72.594 126.165 72.5639 126.215 72.5439C126.245 72.6039 126.275 72.6839 126.315 72.7839C126.375 72.9539 126.065 72.7139 126.045 72.6639H126.055ZM126.455 72.4339C126.535 72.3939 126.605 72.3539 126.685 72.3239C126.665 72.3639 126.635 72.4039 126.605 72.4839C126.535 72.6339 126.475 72.5639 126.455 72.4439V72.4339ZM126.975 72.9839C126.285 73.2239 126.575 73.3439 126.975 72.9839V72.9839ZM127.285 72.7039C127.285 72.7039 127.245 72.6639 127.265 72.6839C127.085 72.5039 127.435 72.5639 127.285 72.7039Z" fill="black"/>
<path d="M149.895 87.6337C150.085 87.0837 149.835 86.3537 149.485 85.6837C149.695 85.9337 149.855 86.2137 149.975 86.5137C149.605 85.3237 148.025 83.0937 146.645 82.0237C146.325 81.9037 145.835 81.7337 145.265 81.5537C144.915 81.4137 144.555 81.3037 144.195 81.2037C143.135 80.8537 142.155 80.4937 142.055 80.2837C142.025 80.2237 142.055 80.1737 142.205 80.1437C141.295 80.1137 140.205 80.1737 139.175 80.3237C139.325 80.2837 139.505 80.1937 139.395 80.1637C139.315 80.1437 138.855 80.3137 139.015 80.3437C137.925 80.5037 136.905 80.7537 136.245 81.0837C135.385 81.2437 133.825 82.7437 132.775 83.6337C132.945 83.8137 132.675 83.7737 132.665 83.7437C132.525 83.8437 132.385 83.9537 132.265 84.0437C132.315 83.8937 132.145 84.0437 132.075 84.1737C131.945 84.2537 131.845 84.3037 131.785 84.2837C131.465 84.9837 131.225 85.6137 131.055 86.2637C131.015 86.3437 130.965 86.4337 130.925 86.5237C130.705 87.0037 130.555 87.4737 130.455 87.9537C130.155 89.4837 131.105 89.1137 131.795 88.5637C132.815 88.3637 134.395 87.6337 135.695 87.0137C136.245 86.8937 136.655 86.7637 136.655 86.6037C136.625 86.6037 136.605 86.6037 136.575 86.6037C136.645 86.5737 136.715 86.5337 136.785 86.5037C136.935 86.4837 137.115 86.4737 137.295 86.4537C137.085 86.5537 136.885 86.6637 136.695 86.8037C136.805 86.7737 137.115 86.5937 137.405 86.4437C138.415 86.3537 139.735 86.2937 140.935 86.3237C140.935 86.5537 141.585 86.5137 141.405 86.4037C141.405 86.4037 141.345 86.3737 141.275 86.3337C141.345 86.3337 141.415 86.3337 141.485 86.3337C142.785 86.7937 144.005 87.5437 145.475 88.0737C148.335 89.1137 149.415 88.2537 149.395 86.8437C149.485 87.1537 149.495 87.4237 149.385 87.6037C149.275 87.8537 149.205 88.0037 149.175 88.0837C148.935 88.2137 148.715 88.3037 148.735 88.3937C149.355 88.3137 149.695 88.0737 149.855 87.7537C150.115 87.5437 150.055 87.5437 149.895 87.6237V87.6337ZM146.375 82.0937C146.375 82.0937 146.335 82.0637 146.325 82.0537C146.415 82.0937 146.425 82.1037 146.375 82.0937ZM138.975 80.8137C138.875 80.9337 138.815 80.9237 138.805 80.7837L138.975 80.8137ZM138.975 80.8737C139.085 80.8837 139.065 80.9337 138.935 81.0037C138.745 80.9737 138.755 80.9337 138.975 80.8737ZM138.185 80.7837C138.335 80.8237 138.335 80.9037 138.195 81.0037C138.025 80.9837 138.015 80.9137 138.185 80.7837ZM137.735 80.9937L137.585 81.1237C137.365 81.2337 137.555 81.0137 137.735 80.9937ZM136.955 81.1437C136.765 81.1637 136.885 81.2337 136.955 81.1437V81.1437ZM135.505 81.8437C135.605 81.8437 135.615 81.8737 135.535 81.9537C135.395 82.0037 135.375 81.9637 135.505 81.8437ZM135.005 82.2637C134.615 82.3437 134.725 82.1837 135.005 82.2637V82.2637ZM134.385 82.6337C134.385 82.7537 134.275 82.7637 134.185 82.7837C134.295 82.5637 134.375 82.5237 134.385 82.6337ZM133.435 83.3037C133.355 83.3737 133.295 83.4537 133.225 83.5337C132.995 83.5637 133.335 83.2837 133.435 83.3037ZM149.545 86.8237L149.475 86.5637C149.605 86.6137 149.645 86.7137 149.545 86.8237ZM149.625 87.1337C149.855 87.6037 149.545 87.8637 149.235 88.0537C149.355 87.8437 149.545 87.4237 149.625 87.1337ZM149.555 87.9837C149.615 87.9337 149.775 87.9237 149.555 87.9837V87.9837Z" fill="black"/>
</svg>
